<?xml version="1.0" standalone="no"?>
<!DOCTYPE svg PUBLIC "-//W3C//DTD SVG 20010904//EN"
 "http://www.w3.org/TR/2001/REC-SVG-20010904/DTD/svg10.dtd">
<svg version="1.0" xmlns="http://www.w3.org/2000/svg"
 width="512.000000pt" height="512.000000pt" viewBox="0 0 512.000000 512.000000"
 preserveAspectRatio="xMidYMid meet">

<g transform="translate(0.000000,512.000000) scale(0.100000,-0.100000)"
fill="#000000" stroke="none">
<path d="M680 5104 c-189 -40 -368 -180 -454 -356 -60 -121 -80 -213 -72 -338
6 -114 24 -179 79 -285 50 -95 154 -207 238 -254 l56 -31 -33 -63 c-51 -96
-111 -259 -143 -388 -111 -439 -33 -874 219 -1231 66 -93 203 -240 295 -316
l50 -42 -130 0 c-71 0 -148 -5 -170 -11 -53 -15 -129 -91 -144 -144 -15 -56
-15 -1434 0 -1490 14 -51 93 -130 146 -144 26 -8 526 -11 1591 -11 l1552 0 0
75 0 75 -1550 2 -1549 3 -23 23 -23 23 0 699 0 699 23 23 23 23 1900 3 1900 2
24 -24 25 -25 0 -701 0 -701 -25 -24 c-23 -24 -30 -25 -150 -25 l-125 0 0 -75
0 -75 126 0 c71 0 145 5 168 12 54 16 128 90 144 144 17 59 17 1429 0 1488
-17 55 -91 131 -143 145 -22 6 -98 11 -170 11 l-130 0 45 37 c83 67 234 228
299 319 115 162 199 356 243 557 32 147 31 435 -1 587 -30 141 -91 323 -149
443 l-48 98 56 31 c123 69 249 234 294 388 26 85 31 231 12 320 -41 198 -178
376 -358 464 -121 60 -213 80 -338 72 -100 -6 -184 -27 -260 -66 -124 -62
-241 -174 -295 -280 l-25 -49 -102 48 c-214 101 -445 170 -688 208 -137 21
-500 24 -625 5 -123 -18 -249 -44 -258 -51 -7 -7 16 -127 26 -138 3 -2 51 5
108 16 527 101 1088 3 1559 -273 35 -20 63 -36 64 -34 1 2 12 37 25 78 41 133
100 217 204 291 101 71 178 94 307 93 81 -1 119 -6 164 -23 151 -55 273 -176
327 -326 30 -82 32 -245 5 -325 -40 -118 -120 -224 -216 -285 -25 -16 -82 -43
-127 -60 l-81 -31 45 -74 c105 -172 182 -364 224 -560 19 -86 23 -137 23 -280
0 -154 -3 -189 -26 -286 -82 -348 -287 -634 -614 -856 l-85 -58 -1378 0 -1378
0 -84 56 c-334 224 -553 539 -626 902 -26 132 -23 384 6 522 46 218 126 408
258 617 14 20 12 22 -54 43 -179 59 -301 177 -359 350 -27 80 -25 243 5 325
54 150 175 271 327 327 84 30 254 30 339 -1 164 -59 282 -186 336 -361 13 -41
24 -76 25 -78 1 -2 25 11 55 28 88 53 239 125 339 164 52 20 105 41 117 46
l22 9 -23 68 c-19 55 -27 67 -42 65 -30 -5 -243 -91 -316 -128 l-68 -34 -24
48 c-127 251 -449 398 -736 336z"/>
<path d="M3090 4505 l0 -75 75 0 75 0 0 75 0 75 -75 0 -75 0 0 -75z"/>
<path d="M3390 4355 l0 -75 75 0 75 0 0 75 0 75 -75 0 -75 0 0 -75z"/>
<path d="M1350 3995 c-252 -51 -468 -218 -580 -450 -58 -119 -80 -217 -81
-352 0 -236 78 -428 242 -591 247 -246 615 -310 931 -160 226 107 385 301 449
547 28 106 28 286 0 396 -66 257 -256 474 -495 566 -149 57 -320 74 -466 44z
m304 -150 c245 -52 455 -258 512 -502 20 -86 19 -239 -1 -318 -8 -33 -34 -98
-57 -145 -32 -67 -58 -102 -122 -166 -91 -90 -154 -130 -271 -170 -71 -25 -94
-28 -205 -28 -111 0 -134 4 -209 29 -168 57 -316 186 -391 339 -53 109 -70
180 -70 301 0 122 16 192 72 305 56 116 178 240 290 295 144 70 303 92 452 60z"/>
<path d="M1401 3699 c-121 -24 -261 -122 -333 -234 -61 -94 -81 -176 -76 -303
4 -92 9 -118 37 -184 18 -43 36 -78 39 -78 4 0 27 14 51 30 69 47 137 34 159
-30 13 -37 6 -65 -30 -118 l-29 -42 45 -20 c129 -55 223 -69 334 -50 189 31
356 177 412 358 26 83 28 212 5 303 -24 95 -23 94 -90 57 -98 -53 -167 -40
-222 42 -33 47 -30 100 9 171 18 32 30 60 28 63 -3 2 -41 14 -84 25 -83 22
-177 25 -255 10z m131 -212 c10 -161 129 -278 285 -281 l65 -1 -5 -63 c-9
-116 -88 -232 -194 -285 -62 -32 -154 -51 -207 -43 -40 6 -42 8 -38 35 8 56
-25 139 -76 190 -52 51 -101 71 -177 71 l-47 0 4 88 c5 98 27 159 83 227 61
75 177 132 271 134 l31 1 5 -73z"/>
<path d="M3435 3964 c-623 -139 -863 -904 -427 -1366 116 -122 238 -196 397
-239 113 -31 297 -31 410 0 246 66 449 239 550 468 67 150 86 368 45 528 -42
168 -151 339 -283 445 -72 58 -216 132 -302 155 -87 24 -301 29 -390 9z m337
-153 c242 -62 437 -257 493 -492 23 -99 20 -251 -8 -345 -65 -226 -251 -409
-477 -470 -88 -23 -254 -23 -340 0 -181 49 -350 186 -428 346 -55 111 -72 184
-73 300 -2 268 135 491 375 612 133 67 311 86 458 49z"/>
<path d="M3477 3665 c-175 -48 -320 -191 -371 -365 -17 -56 -23 -203 -10 -256
8 -37 64 -174 71 -174 2 0 24 14 48 30 118 82 216 -19 135 -140 -16 -24 -26
-47 -22 -51 21 -19 152 -61 220 -71 150 -22 313 34 427 146 103 101 155 227
155 376 0 75 -25 209 -43 226 -3 3 -29 -8 -59 -25 -92 -52 -181 -36 -228 41
-29 47 -25 103 10 167 17 30 30 57 30 62 0 4 -35 16 -78 28 -90 24 -210 27
-285 6z m153 -198 c0 -51 6 -76 31 -125 50 -101 147 -163 261 -165 l60 -2 -4
-60 c-16 -194 -204 -346 -405 -327 -40 4 -42 5 -37 32 9 44 -23 136 -62 180
-49 54 -107 80 -178 80 l-58 0 4 88 c3 68 9 99 30 143 60 129 187 216 321 218
l37 1 0 -63z"/>
<path d="M2459 2397 c-128 -36 -241 -156 -264 -280 -8 -41 -8 -40 91 -52 l51
-5 7 32 c10 51 51 104 103 135 39 23 60 28 113 28 53 0 74 -5 113 -28 52 -31
93 -84 103 -135 l7 -32 51 5 c99 12 99 11 91 53 -18 101 -110 212 -211 259
-67 30 -185 40 -255 20z"/>
<path d="M4030 1173 l-82 -127 -80 122 c-44 67 -84 122 -89 122 -21 0 -121
-71 -116 -83 2 -7 50 -82 106 -167 l101 -154 0 -178 0 -178 75 0 75 0 0 173 0
174 110 169 c60 92 108 169 107 170 -1 0 -30 19 -64 42 l-61 41 -82 -126z"/>
<path d="M1089 1255 c-90 -29 -160 -138 -144 -224 16 -87 51 -120 191 -176 60
-24 119 -53 132 -64 30 -26 26 -58 -11 -85 -60 -44 -174 -15 -236 61 l-31 37
-55 -54 -55 -54 51 -52 c155 -157 408 -147 488 19 24 50 27 122 7 170 -23 56
-95 109 -203 151 -115 46 -123 51 -123 83 0 18 9 28 36 39 49 21 115 5 173
-41 24 -19 47 -35 50 -35 3 1 26 26 51 57 l44 56 -39 34 c-92 80 -223 111
-326 78z"/>
<path d="M1845 1257 c-70 -24 -119 -54 -166 -104 -57 -59 -83 -109 -99 -191
-32 -159 58 -326 215 -399 52 -24 72 -28 150 -28 76 0 99 5 147 27 79 37 142
98 181 177 29 60 32 74 32 161 0 87 -3 101 -32 161 -62 125 -172 198 -311 205
-48 2 -92 -1 -117 -9z m161 -152 c58 -17 109 -63 135 -120 53 -115 -14 -255
-139 -291 -92 -27 -181 5 -237 84 -27 40 -30 51 -30 121 0 68 3 83 27 119 31
46 59 68 116 88 48 17 68 17 128 -1z"/>
<path d="M2460 900 l0 -370 75 0 74 0 3 117 3 117 104 -122 c57 -68 108 -121
113 -120 13 5 107 82 108 89 0 3 -38 51 -85 106 -47 56 -85 104 -85 107 0 3 6
6 13 6 29 0 96 63 121 112 61 123 1 266 -131 314 -25 8 -87 13 -175 14 l-138
0 0 -370z m297 186 c30 -35 29 -61 -2 -91 -20 -21 -34 -25 -85 -25 l-60 0 0
76 0 76 62 -4 c51 -4 65 -9 85 -32z"/>
<path d="M3090 900 l0 -370 75 0 74 0 3 115 3 116 100 -120 c55 -67 104 -121
108 -121 5 0 33 21 63 46 l54 46 -85 100 c-47 55 -85 104 -85 108 0 5 9 12 21
15 11 4 36 21 55 37 106 93 103 247 -6 340 -56 48 -98 58 -249 58 l-131 0 0
-370z m269 205 c47 -24 56 -78 19 -112 -17 -15 -39 -22 -81 -25 l-57 -3 0 78
0 77 45 0 c26 0 59 -7 74 -15z"/>
<path d="M3910 75 l0 -75 75 0 75 0 0 75 0 75 -75 0 -75 0 0 -75z"/>
</g>
</svg>
